<svg xmlns="http://www.w3.org/2000/svg" width="80" height="77" viewBox="0 0 80 77">
  <path fill="#000000" fill-rule="evenodd" d="M15.9195709,71.9359283 C16.9286464,70.8846275 17.6990598,69.7116029 18.2204082,68.4408163 C18.9170103,66.7428487 19.2653061,65.023138 19.2653061,63.2816327 C19.2653061,59.7115468 18.459872,57.0775595 16.8489796,55.3795918 C15.2380872,53.6816242 13.4748395,52.4843572 11.5591837,51.7877551 C8.4830739,50.6544515 4.9366635,49.5776049 0.919859608,48.5571876 C-0.374064128,42.8990072 -0.0923055013,37.1199544 0.580792703,33.2065585 C1.26318382,33.3883131 1.96210288,33.573882 2.67755102,33.7632653 C5.63811004,34.5469427 8.53331918,35.3088398 11.3632653,36.0489796 C14.1932114,36.7891193 16.217681,37.3333316 17.4367347,37.6816327 C20.484369,38.6394606 23.1401247,39.94557 25.4040816,41.6 C27.6680385,43.25443 29.5618971,45.1482887 31.0857143,47.2816327 C32.6095314,49.4149767 33.7414929,51.7006681 34.4816327,54.1387755 C35.2217724,56.5768829 35.5918367,59.0149538 35.5918367,61.4530612 C35.5918367,66.6775771 34.5251807,71.1401176 32.3918367,74.8408163 C31.6026409,76.2098294 30.7210994,77.4864847 29.7472077,78.6707869 C21.8674045,76.5917969 16.5673981,72.4371185 15.9195709,71.9359283 Z M24.9784757,2.906275 C27.0308546,4.94747398 28.7400608,7.2875479 30.1061224,9.92653061 C32.0217783,13.6272294 32.9795918,17.9156219 32.9795918,22.7918367 L16.6530612,22.7918367 C16.2853874,17.7179376 14.7688879,13.9016061 12.1035257,11.3427658 C15.3609484,7.99983724 20.5380859,4.63525391 24.9784757,2.906275 Z M60.5387755,57.4040816 C60.5387755,60.9741675 61.1482932,64.0217561 62.3673469,66.5469388 C63.1641562,68.1974722 64.1655615,69.6526856 65.3715772,70.9125964 C62.4935981,73.1815592 58.5875109,76.1547852 51.3367519,78.3706306 C49.8590644,76.5760434 48.5726681,74.5722328 47.477551,72.3591837 C45.3877447,68.1360333 44.2993202,63.1510491 44.2122449,57.4040816 L60.5387755,57.4040816 Z M79.388824,46.9980048 C76.1282628,46.1569049 72.4571719,45.1847845 68.3755102,44.0816327 C64.370048,43.0367295 61.0394691,41.6653146 58.3836735,39.9673469 C55.7278779,38.2693793 53.6163344,36.3755207 52.0489796,34.2857143 C50.4816248,32.1959079 49.3714318,29.975522 48.7183673,27.6244898 C48.0653029,25.2734576 47.7387755,22.8789238 47.7387755,20.4408163 C47.7387755,15.738752 48.7183576,11.6680444 50.677551,8.22857143 C51.8226181,6.2183426 53.1835868,4.41512778 54.7599335,2.80645752 C62.276001,5.87445068 65.9633789,9.61175537 67.2756696,10.7472733 C66.8520795,11.137523 66.1705213,11.9235922 65.6979592,12.6040816 C64.6095184,14.1714364 64.0653061,16.1306005 64.0653061,18.4816327 C64.0653061,21.7904927 65.0884251,24.380943 67.1346939,26.2530612 C69.1809626,28.1251794 71.8584869,29.5401313 75.1673469,30.4979592 C75.515648,30.5850344 76.7168499,30.9080012 79.1114197,31.5610657 C80.3612994,36.8277803 80.1291935,43.0071806 79.388824,46.9980048 Z" transform="translate(0 -2)"/>
</svg>
